Coordinates
version=1
nRows=14
nColumns=36
inDegrees=yes

Units are S.I. units (second, meters, Newtons, ...)
If the header above contains a line with 'inDegrees', this indicates whether rotational values are in degrees (yes) or radians (no).

endheader
time	pelvis_tilt	pelvis_list	pelvis_rotation	pelvis_tx	pelvis_ty	pelvis_tz	hip_flexion_r	hip_adduction_r	hip_rotation_r	knee_angle_r	knee_angle_r_beta	ankle_angle_r	subtalar_angle_r	mtp_angle_r	hip_flexion_l	hip_adduction_l	hip_rotation_l	knee_angle_l	knee_angle_l_beta	ankle_angle_l	subtalar_angle_l	mtp_angle_l	lumbar_extension	lumbar_bending	lumbar_rotation	arm_flex_r	arm_add_r	arm_rot_r	elbow_flex_r	pro_sup_r	arm_flex_l	arm_add_l	arm_rot_l	elbow_flex_l	pro_sup_l
      3.00000000	     -6.44322868	      1.81642798	      2.39211375	      0.65513010	      1.11694994	      0.03456486	     37.25773700	     -7.95062065	      0.38471183	     27.08124952	      0.47265697	    -17.62393891	    -16.33429874	     -7.49999987	     39.86592975	     -4.36845356	     -3.97000393	     26.97815291	      0.47085759	    -25.97823692	     -1.67508553	     -7.49999987	    -17.82799606	     -0.00118320	      1.01051736	     49.20753547	    -34.79052272	     24.30010594	     28.63188219	     82.28886832	     61.06602669	    -18.74642074	     64.23731086	      8.53570240	     67.79358312
      3.01666670	     -6.08520969	      1.48151657	      2.44374043	      0.67780733	      1.08797836	      0.03520357	     36.62822464	     -7.56143888	      0.61155498	     24.30455416	      0.42419449	    -19.03221549	    -15.58222409	     -7.49999987	     39.51005666	     -5.22637755	     -4.55185268	     25.04248059	      0.43707374	    -27.73444231	     -3.12027220	     -7.49999987	    -17.04082116	      0.11621367	      0.71264114	     48.59040894	    -35.15995045	     24.02873890	     28.36810236	     82.57589487	     60.75382094	    -19.10302053	     64.23210424	      7.77607996	     67.79071382
      3.03333330	     -5.65838098	      1.19395699	      2.75021110	      0.69893262	      1.05499635	      0.03386293	     36.41624038	     -7.44877471	      0.11748121	     24.02401248	      0.41929812	    -19.71023122	    -14.74075561	     -7.49999987	     39.46478467	     -5.68091922	     -4.63819984	     25.35764471	      0.44257439	    -28.12780427	     -4.58318410	     -7.49999987	    -16.39034784	      0.10429449	      0.30070705	     48.14276287	    -35.93166722	     23.81103779	     28.74232439	     82.33302573	     60.96706886	    -19.79342272	     64.18034536	      8.10870925	     67.63468751
      3.05000000	     -5.05296942	      0.72018729	      2.80742956	      0.71787271	      1.01773673	      0.03327878	     36.81190174	     -6.95843283	     -0.34361070	     25.91191374	      0.45224821	    -19.52948114	    -14.24765406	     -7.49999987	     39.47546964	     -6.00711812	     -3.26426960	     27.09213662	      0.47284699	    -27.48550049	     -6.83145272	     -7.49999987	    -16.05726310	      0.49778483	      0.58874483	     47.47304685	    -38.25132795	     23.00836494	     31.63964645	     79.46374423	     61.73772711	    -20.52810066	     63.79852140	      9.82551140	     66.30889564
      3.06666670	     -4.49426321	      0.63317780	      2.45213246	      0.73875563	      0.97575643	      0.03383587	     37.50875634	     -6.58118452	     -0.64721904	     29.12152175	      0.50826644	    -19.38103416	    -13.02962559	     -7.49999987	     39.91234215	     -6.10180526	     -2.71120086	     29.65970623	      0.51765953	    -26.20903745	     -6.90879547	     -7.49999987	    -15.39929760	      0.10510442	      1.58283630	     47.45852158	    -41.28730651	     24.47040938	     33.17273437	     79.91798142	     63.64064920	    -20.29809967	     65.68190391	      9.28218085	     66.18184296
      3.08333330	     -4.03818489	      1.02875161	      2.62525892	      0.76039955	      0.92753665	      0.03130877	     38.86453732	     -6.93097962	     -0.76898070	     33.42764571	      0.58342248	    -17.90274367	    -11.91670086	     -7.49999987	     41.00240604	     -5.30225095	     -2.42728982	     33.42553394	      0.58338562	    -23.65684268	     -7.07373869	     -7.49999987	    -14.85474388	     -0.88481154	      2.68517538	     45.89504896	    -45.69961049	     22.34413376	     37.23356132	     80.40235622	     67.32658425	    -19.59378568	     73.99998508	      9.04669525	     61.80996906
      3.10000000	     -4.32976114	      1.42065967	      3.02687770	      0.77775003	      0.88147828	      0.03035784	     41.64194018	     -7.29059165	     -0.63540067	     39.84229134	      0.69537917	    -10.84327137	    -11.73659171	     -7.49999987	     43.88690368	     -4.47749397	     -1.20144928	     40.01930013	      0.69846855	    -17.67027486	     -7.61854983	     -7.49999987	    -13.90741174	     -1.64313202	      2.89660015	     46.63065410	    -49.78348767	     24.04218325	     40.50359238	     78.79888318	     71.09318872	    -19.53330694	     76.22690826	      9.20988486	     62.05412618
      3.11666670	     -4.50626450	      1.79164860	      2.52838800	      0.78969828	      0.84350591	      0.02865985	     45.60631551	     -7.25107185	      0.17298659	     48.56193344	      0.84756563	     -1.84221570	    -12.94698864	     -7.49999987	     47.62401577	     -4.11676564	     -1.41009401	     49.10355053	      0.85701863	     -8.43755768	     -9.74581121	     -7.49999987	    -13.61135923	     -2.01828639	      3.06869287	     49.32693430	    -52.41589049	     24.44190254	     42.87087273	     78.76627922	     74.55278990	    -20.56620919	     76.56644361	     10.94999480	     61.97209294
      3.13333330	     -4.80774854	      1.83284370	      2.40727854	      0.79631938	      0.80174588	      0.02873858	     51.34006802	     -7.43119744	      0.56611293	     58.75792666	      1.02551928	      6.39763993	    -14.49625985	     -7.49999987	     52.36296487	     -3.72625116	     -0.95781986	     59.57942024	      1.03985705	      2.78359788	    -11.27272967	     -7.49999987	    -14.28190618	     -2.14255501	      3.70255619	     53.61789959	    -56.52899196	     29.27353691	     45.21735795	     79.34706569	     79.78809010	    -19.88775626	     82.55690886	     10.15815002	     61.68667291
      3.15000000	     -5.14623887	      1.51278328	      2.22006541	      0.80417059	      0.76913175	      0.02893445	     57.01804365	     -7.06737186	      1.11865157	     68.93663660	      1.20317128	     13.85229839	    -14.86632026	     -7.49999987	     57.68410552	     -3.71060903	      0.05441352	     70.23394662	      1.22581362	     11.66668936	    -12.30021712	     -7.49999987	    -15.66131394	     -1.99495260	      4.51869510	     56.72909400	    -59.79014009	     30.91431323	     47.00501475	     78.66770773	     84.46762956	    -19.04414050	     82.53424105	     10.45518811	     61.01557540
      3.16666670	     -5.19769110	      1.31879300	      2.31308369	      0.80840744	      0.74281188	      0.02878995	     61.53718121	     -6.69119398	      1.77051161	     77.46190535	      1.35196529	     19.24101867	    -14.78925413	     -7.49999987	     62.21733492	     -3.32421725	      1.22731121	     79.10509329	      1.38064433	     17.68796782	    -12.95794636	     -7.49999987	    -17.97456063	     -2.11771581	      4.50140237	     59.61709131	    -61.07104651	     31.31918952	     47.96175549	     78.66079044	     89.08883956	    -18.22928635	     83.30484013	     10.38710826	     60.91256131
      3.18333330	     -5.70328775	      0.94417479	      2.25470270	      0.80715845	      0.71465760	      0.03017050	     66.12151229	     -5.98912360	      2.31599353	     84.06056916	      1.46713370	     22.91948177	    -14.85208724	     -7.49999987	     66.39414371	     -3.40033078	      2.38509685	     85.61283034	      1.49422577	     22.04933886	    -12.97806387	     -7.49999987	    -20.35075335	     -2.39226502	      4.39129881	     62.67833623	    -61.53254543	     32.02884506	     47.91970556	     78.64660677	     93.72987978	    -17.43881178	     84.00885092	     10.36594348	     60.80048398
      3.20000000	     -6.31443277	      0.61379691	      2.34258514	      0.80593271	      0.69639854	      0.02861116	     69.28607324	     -5.30558681	      2.82395744	     88.08609638	      1.53739241	     24.42303763	    -15.68326882	     -7.49999987	     69.80036436	     -3.19111931	      3.30902736	     89.82719437	      1.56778030	     23.42799344	    -13.92886271	     -7.49999987	    -22.95889674	     -2.71969055	      4.11654198	     65.19749934	    -60.99310136	     31.70574075	     47.66253968	     78.57996127	     97.87088998	    -16.09466567	     83.90347898	     10.33955892	     60.69800819
      3.21666670	     -7.05081584	      0.34142031	      2.42720219	      0.80725747	      0.67326886	      0.02944519	     72.23082369	     -5.15428080	      3.16648683	     91.30303511	      1.59353858	     27.09552485	    -14.00656607	     -7.49999987	     72.96535345	     -3.11208699	      4.19085705	     93.11826342	      1.62522029	     25.62423401	    -12.73436902	     -7.49999987	    -23.96260257	     -1.04758283	     -1.60423429	     82.97124296	    -49.25846247	     59.67188759	     31.87539155	     67.40300199	    100.08777009	    -22.73096632	     93.65782589	     11.60169742	     51.76944199
